<svg width="25" height="25" viewBox="0 0 25 25" fill="none" xmlns="http://www.w3.org/2000/svg">
<g clip-path="url(#clip0_405_1739)">
<path d="M21.2883 4.24986L15.2758 0.779027C14.4313 0.293254 13.474 0.0375977 12.4998 0.0375977C11.5255 0.0375977 10.5683 0.293254 9.72371 0.779027L3.71121 4.24986C2.86795 4.73891 2.16789 5.44083 1.68108 6.28539C1.19427 7.12995 0.937773 8.08754 0.937256 9.06236V16.004C0.938923 16.9783 1.19617 17.9351 1.6833 18.7788C2.17043 19.6226 2.87039 20.3238 3.7133 20.8124L9.7258 24.2832C10.5703 24.7691 11.5275 25.0248 12.5018 25.0248C13.4761 25.0248 14.4334 24.7691 15.2779 24.2832L21.2904 20.8124C22.1333 20.3228 22.8329 19.6206 23.3193 18.7759C23.8057 17.9312 24.0619 16.9736 24.0623 15.9988V9.06236C24.0617 8.08754 23.8052 7.12995 23.3184 6.28539C22.8316 5.44083 22.1316 4.73891 21.2883 4.24986V4.24986ZM11.2883 3.48528C11.6575 3.27307 12.076 3.16139 12.5018 3.16139C12.9277 3.16139 13.3461 3.27307 13.7154 3.48528L19.3748 6.75403L13.9758 9.87278C13.5265 10.1303 13.0176 10.2657 12.4998 10.2657C11.9819 10.2657 11.473 10.1303 11.0237 9.87278L5.62476 6.75403L11.2883 3.48528ZM5.27371 18.1009C4.90568 17.887 4.60015 17.5803 4.38759 17.2115C4.17503 16.8426 4.06286 16.4245 4.06226 15.9988V9.46028L9.4633 12.578C9.92597 12.8457 10.4224 13.0503 10.9393 13.1863V21.3707L5.27371 18.1009ZM19.7258 18.1009L14.0623 21.3707V13.1863C14.5792 13.0503 15.0756 12.8457 15.5383 12.578L20.9373 9.46028V15.9988C20.9367 16.4245 20.8245 16.8426 20.6119 17.2115C20.3994 17.5803 20.0938 17.887 19.7258 18.1009Z" fill="#070707"/>
</g>
<defs>
<clipPath id="clip0_405_1739">
<rect width="25" height="25" fill="white"/>
</clipPath>
</defs>
</svg>
