<svg width="25" height="25" viewBox="0 0 25 25" fill="none" xmlns="http://www.w3.org/2000/svg">
<path d="M21.3823 4.39264L15.1042 0.767642C14.3119 0.312039 13.4139 0.0722656 12.5 0.0722656C11.5861 0.0722656 10.6881 0.312039 9.89584 0.767642L3.61772 4.39264C2.82696 4.85088 2.17029 5.5086 1.71331 6.30009C1.25634 7.09158 1.01505 7.98912 1.01355 8.90306V16.1531C1.01507 17.0671 1.25636 17.9648 1.71333 18.7565C2.1703 19.5481 2.82695 20.206 3.61772 20.6645L9.89584 24.2885C10.688 24.7444 11.586 24.9843 12.5 24.9843C13.414 24.9843 14.312 24.7444 15.1042 24.2885L21.3823 20.6645C22.1731 20.206 22.8297 19.5481 23.2867 18.7565C23.7437 17.9648 23.9849 17.0671 23.9865 16.1531V8.90306C23.985 7.98912 23.7437 7.09158 23.2867 6.30009C22.8297 5.5086 22.1731 4.85088 21.3823 4.39264V4.39264ZM10.9375 2.57285C11.4126 2.29857 11.9515 2.15418 12.5 2.15418C13.0486 2.15418 13.5874 2.29857 14.0625 2.57285L20.3406 6.19681C20.4998 6.29743 20.6494 6.4125 20.7875 6.54056L14.3365 10.2645C13.778 10.5865 13.1447 10.7559 12.5 10.7559C11.8554 10.7559 11.222 10.5865 10.6636 10.2645L4.21251 6.54056C4.3506 6.4125 4.50019 6.29743 4.65938 6.19681L10.9375 2.57285ZM4.65938 18.8593C4.1846 18.5842 3.79038 18.1893 3.51617 17.714C3.24196 17.2387 3.09737 16.6997 3.09688 16.151V8.90306C3.10412 8.7154 3.12888 8.52882 3.17084 8.34577L9.62188 12.0697C10.1916 12.3938 10.8128 12.6175 11.4583 12.7312V22.6989C11.2784 22.6438 11.104 22.5719 10.9375 22.4843L4.65938 18.8593ZM21.9031 16.151C21.9026 16.6997 21.7581 17.2387 21.4838 17.714C21.2096 18.1893 20.8154 18.5842 20.3406 18.8593L14.0625 22.4843C13.896 22.5719 13.7216 22.6438 13.5417 22.6989V12.7312C14.1872 12.6175 14.8084 12.3938 15.3781 12.0697L21.8292 8.34577C21.8711 8.52882 21.8959 8.7154 21.9031 8.90306V16.151Z" fill="black"/>
</svg>
