<svg width="25" height="25" viewBox="0 0 30 30" fill="none" xmlns="http://www.w3.org/2000/svg">
<g clip-path="url(#clip0_38_169)">
<path d="M29 1.00029C28.5364 0.532807 27.9469 0.21018 27.3033 0.0716934C26.6597 -0.0667933 25.9897 -0.0151657 25.375 0.22029L3.94373 8.66154C2.54326 9.21538 1.3913 10.2585 0.701662 11.5973C0.0120222 12.9362 -0.168453 14.4797 0.193734 15.9415C1.10252 19.2588 2.85897 22.2824 5.29039 24.7151C7.7218 27.1479 10.7445 28.906 14.0612 29.8165V29.8165C15.5245 30.1764 17.0687 29.9937 18.4075 29.3021C19.7464 28.6105 20.7891 27.4569 21.3425 26.0553L29.7899 4.59029C30.0177 3.97934 30.0644 3.31562 29.9242 2.67882C29.7841 2.04201 29.4632 1.45918 29 1.00029V1.00029ZM14.6825 27.389C11.7963 26.5969 9.16583 25.0675 7.04962 22.9511C4.93342 20.8347 3.40428 18.2041 2.61248 15.3178C2.42989 14.5731 2.48407 13.7899 2.7675 13.0774C3.05092 12.365 3.54947 11.7586 4.19373 11.3428C4.32294 15.1374 5.8879 18.7415 8.57231 21.4266C11.2567 24.1117 14.8604 25.6776 18.655 25.8078C18.2396 26.4518 17.6336 26.9503 16.9216 27.2337C16.2095 27.5172 15.4268 27.5715 14.6825 27.389ZM19.7162 23.3553C11.9775 23.2303 6.77248 18.024 6.64623 10.284L26.2625 2.55904C26.4263 2.49625 26.6049 2.48292 26.7762 2.52069C26.9475 2.55847 27.104 2.64569 27.2262 2.77154C27.3509 2.88814 27.4387 3.03867 27.4789 3.20458C27.5191 3.3705 27.5099 3.54455 27.4525 3.70529L26.625 5.80654C19.4275 3.33154 15.4475 13.5678 22.3587 16.6415L19.7162 23.3553ZM23.275 14.3153C22.491 13.9697 21.8711 13.3341 21.5452 12.5417C21.2192 11.7493 21.2125 10.8616 21.5264 10.0643C21.8403 9.26711 22.4504 8.62223 23.2291 8.26475C24.0077 7.90726 24.8945 7.86491 25.7037 8.14654L23.275 14.3153Z" fill="black"/>
<path d="M13.75 11.25C13.087 11.25 12.4511 11.5134 11.9822 11.9822C11.5134 12.4511 11.25 13.087 11.25 13.75C11.25 14.413 11.5134 15.0489 11.9822 15.5178C12.4511 15.9866 13.087 16.25 13.75 16.25C14.413 16.25 15.0489 15.9866 15.5178 15.5178C15.9866 15.0489 16.25 14.413 16.25 13.75C16.25 13.087 15.9866 12.4511 15.5178 11.9822C15.0489 11.5134 14.413 11.25 13.75 11.25Z" fill="black"/>
</g>
<defs>
<clipPath id="clip0_38_169">
<rect width="30" height="30" fill="white"/>
</clipPath>
</defs>
</svg>
