<svg width="25" height="25" viewBox="0 0 30 30" fill="none" xmlns="http://www.w3.org/2000/svg">
<g clip-path="url(#clip0_964_98)">
<path d="M28.125 19.3746C27.6277 19.3746 27.1508 19.5722 26.7992 19.9238C26.4475 20.2754 26.25 20.7523 26.25 21.2496V23.1246C26.25 23.9534 25.9208 24.7483 25.3347 25.3343C24.7487 25.9204 23.9538 26.2496 23.125 26.2496H21.25C20.7527 26.2496 20.2758 26.4472 19.9242 26.7988C19.5725 27.1504 19.375 27.6273 19.375 28.1246C19.375 28.6219 19.5725 29.0988 19.9242 29.4504C20.2758 29.8021 20.7527 29.9996 21.25 29.9996H23.125C24.9478 29.9976 26.6953 29.2726 27.9842 27.9838C29.273 26.6949 29.998 24.9474 30 23.1246V21.2496C30 20.7523 29.8025 20.2754 29.4508 19.9238C29.0992 19.5722 28.6223 19.3746 28.125 19.3746Z" fill="black"/>
<path d="M1.875 10.625C2.37228 10.625 2.84919 10.4275 3.20083 10.0758C3.55246 9.72419 3.75 9.24728 3.75 8.75V6.875C3.75 6.0462 4.07924 5.25134 4.66529 4.66529C5.25134 4.07924 6.0462 3.75 6.875 3.75H8.75C9.24728 3.75 9.72419 3.55246 10.0758 3.20083C10.4275 2.84919 10.625 2.37228 10.625 1.875C10.625 1.37772 10.4275 0.900805 10.0758 0.549175C9.72419 0.197544 9.24728 0 8.75 0L6.875 0C5.05225 0.00198521 3.30472 0.726951 2.01583 2.01583C0.726951 3.30472 0.00198521 5.05225 0 6.875L0 8.75C0 9.24728 0.197544 9.72419 0.549175 10.0758C0.900805 10.4275 1.37772 10.625 1.875 10.625V10.625Z" fill="black"/>
<path d="M8.75 26.2496H6.875C6.0462 26.2496 5.25134 25.9204 4.66529 25.3343C4.07924 24.7483 3.75 23.9534 3.75 23.1246V21.2496C3.75 20.7523 3.55246 20.2754 3.20083 19.9238C2.84919 19.5722 2.37228 19.3746 1.875 19.3746C1.37772 19.3746 0.900805 19.5722 0.549175 19.9238C0.197544 20.2754 0 20.7523 0 21.2496L0 23.1246C0.00198521 24.9474 0.726951 26.6949 2.01583 27.9838C3.30472 29.2726 5.05225 29.9976 6.875 29.9996H8.75C9.24728 29.9996 9.72419 29.8021 10.0758 29.4504C10.4275 29.0988 10.625 28.6219 10.625 28.1246C10.625 27.6273 10.4275 27.1504 10.0758 26.7988C9.72419 26.4472 9.24728 26.2496 8.75 26.2496V26.2496Z" fill="black"/>
<path d="M23.125 0H21.25C20.7527 0 20.2758 0.197544 19.9242 0.549175C19.5725 0.900805 19.375 1.37772 19.375 1.875C19.375 2.37228 19.5725 2.84919 19.9242 3.20083C20.2758 3.55246 20.7527 3.75 21.25 3.75H23.125C23.9538 3.75 24.7487 4.07924 25.3347 4.66529C25.9208 5.25134 26.25 6.0462 26.25 6.875V8.75C26.25 9.24728 26.4475 9.72419 26.7992 10.0758C27.1508 10.4275 27.6277 10.625 28.125 10.625C28.6223 10.625 29.0992 10.4275 29.4508 10.0758C29.8025 9.72419 30 9.24728 30 8.75V6.875C29.998 5.05225 29.273 3.30472 27.9842 2.01583C26.6953 0.726951 24.9478 0.00198521 23.125 0V0Z" fill="black"/>
<path d="M15 13.7504C17.4162 13.7504 19.375 11.7916 19.375 9.37537C19.375 6.95912 17.4162 5.00037 15 5.00037C12.5838 5.00037 10.625 6.95912 10.625 9.37537C10.625 11.7916 12.5838 13.7504 15 13.7504Z" fill="black"/>
<path d="M7.63761 22.3095C7.60864 22.488 7.61903 22.6707 7.66806 22.8448C7.71709 23.0188 7.80357 23.1801 7.92144 23.3173C8.03932 23.4544 8.18575 23.5642 8.35047 23.6388C8.5152 23.7135 8.69426 23.7512 8.87511 23.7495H21.1251C21.3061 23.7516 21.4855 23.7141 21.6505 23.6396C21.8156 23.5651 21.9623 23.4554 22.0804 23.3182C22.1986 23.181 22.2853 23.0196 22.3345 22.8454C22.3836 22.6711 22.3941 22.4882 22.3651 22.3095C22.0332 20.6003 21.1171 19.0599 19.7738 17.9523C18.4305 16.8447 16.7436 16.239 15.0026 16.239C13.2615 16.239 11.5747 16.8447 10.2314 17.9523C8.8881 19.0599 7.97196 20.6003 7.64011 22.3095H7.63761Z" fill="black"/>
</g>
<defs>
<clipPath id="clip0_964_98">
<rect width="30" height="30" fill="white"/>
</clipPath>
</defs>
</svg>
