<svg width="25" height="25" viewBox="0 0 30 30" fill="none" xmlns="http://www.w3.org/2000/svg">
<g clip-path="url(#clip0_38_175)">
<path d="M8.74987 30.0008C10.1306 30.0008 11.2499 28.8816 11.2499 27.5008C11.2499 26.1201 10.1306 25.0009 8.74987 25.0009C7.36916 25.0009 6.24988 26.1201 6.24988 27.5008C6.24988 28.8816 7.36916 30.0008 8.74987 30.0008Z" fill="black"/>
<path d="M21.25 30.0008C22.6307 30.0008 23.75 28.8816 23.75 27.5008C23.75 26.1201 22.6307 25.0009 21.25 25.0009C19.8693 25.0009 18.75 26.1201 18.75 27.5008C18.75 28.8816 19.8693 30.0008 21.25 30.0008Z" fill="black"/>
<path d="M28.7501 3.75H26.2501V1.25C26.2501 0.918479 26.1184 0.600537 25.884 0.366117C25.6496 0.131696 25.3316 0 25.0001 0C24.6686 0 24.3506 0.131696 24.1162 0.366117C23.8818 0.600537 23.7501 0.918479 23.7501 1.25V3.75H21.2501C20.9186 3.75 20.6007 3.8817 20.3662 4.11612C20.1318 4.35054 20.0001 4.66848 20.0001 5C20.0001 5.33152 20.1318 5.64946 20.3662 5.88388C20.6007 6.1183 20.9186 6.25 21.2501 6.25H23.7501V8.75C23.7501 9.08152 23.8818 9.39946 24.1162 9.63388C24.3506 9.8683 24.6686 10 25.0001 10C25.3316 10 25.6496 9.8683 25.884 9.63388C26.1184 9.39946 26.2501 9.08152 26.2501 8.75V6.25H28.7501C29.0816 6.25 29.3996 6.1183 29.634 5.88388C29.8684 5.64946 30.0001 5.33152 30.0001 5C30.0001 4.66848 29.8684 4.35054 29.634 4.11612C29.3996 3.8817 29.0816 3.75 28.7501 3.75V3.75Z" fill="black"/>
<path d="M27.2137 12.1575C27.0521 12.1273 26.8861 12.1294 26.7253 12.1638C26.5645 12.1982 26.4122 12.2641 26.2771 12.3579C26.142 12.4516 26.0268 12.5712 25.9382 12.7097C25.8497 12.8483 25.7895 13.003 25.7612 13.165C25.6054 14.0302 25.1504 14.8131 24.476 15.377C23.8015 15.9409 22.9504 16.2499 22.0712 16.25H6.7725L5.5975 6.25H16.25C16.5815 6.25 16.8995 6.1183 17.1339 5.88388C17.3683 5.64946 17.5 5.33152 17.5 5C17.5 4.66848 17.3683 4.35054 17.1339 4.11612C16.8995 3.8817 16.5815 3.75 16.25 3.75H5.3025L5.25 3.31C5.14228 2.39825 4.70382 1.55769 4.01773 0.94763C3.33164 0.337568 2.44559 0.000391046 1.5275 0L1.25 0C0.918479 0 0.600537 0.131696 0.366117 0.366117C0.131696 0.600537 0 0.918479 0 1.25C0 1.58152 0.131696 1.89946 0.366117 2.13388C0.600537 2.3683 0.918479 2.5 1.25 2.5H1.5275C1.83367 2.50004 2.12917 2.61245 2.35797 2.81589C2.58676 3.01934 2.73293 3.29969 2.76875 3.60375L4.48875 18.2288C4.66732 19.7497 5.3981 21.1522 6.54239 22.17C7.68667 23.1878 9.16482 23.75 10.6963 23.75H23.75C24.0815 23.75 24.3995 23.6183 24.6339 23.3839C24.8683 23.1495 25 22.8315 25 22.5C25 22.1685 24.8683 21.8505 24.6339 21.6161C24.3995 21.3817 24.0815 21.25 23.75 21.25H10.6963C9.92065 21.2501 9.16408 21.0098 8.53076 20.5621C7.89744 20.1143 7.41853 19.4812 7.16 18.75H22.0712C23.5364 18.7501 24.9551 18.2355 26.0794 17.296C27.2038 16.3565 27.9623 15.0519 28.2225 13.61C28.2517 13.4484 28.2488 13.2826 28.2139 13.1221C28.179 12.9616 28.1128 12.8096 28.0191 12.6747C27.9254 12.5398 27.8061 12.4247 27.6679 12.336C27.5297 12.2472 27.3754 12.1866 27.2137 12.1575Z" fill="black"/>
</g>
<defs>
<clipPath id="clip0_38_175">
<rect width="30" height="30" fill="white"/>
</clipPath>
</defs>
</svg>
