<svg width="25" height="25" viewBox="0 0 30 30" fill="none" xmlns="http://www.w3.org/2000/svg">
<g clip-path="url(#clip0_964_80)">
<path d="M10.0015 26.25H4.2627C3.98063 26.2493 3.75211 26.0208 3.75146 25.7388V4.26123C3.75217 3.97916 3.98063 3.75064 4.2627 3.75H10.0014C11.037 3.75 11.8764 2.91053 11.8764 1.875C11.8764 0.839473 11.037 0 10.0014 0H4.2627C1.91045 0.00275391 0.00421875 1.90898 0.00146484 4.26123V25.7387C0.00421875 28.091 1.91045 29.9972 4.2627 30H10.0014C11.037 30 11.8764 29.1605 11.8764 28.125C11.8764 27.0895 11.037 26.25 10.0015 26.25Z" fill="black"/>
<path d="M28.1268 13.1262L11.0768 13.1599L15.4093 8.82742C16.1418 8.09529 16.1421 6.90801 15.4099 6.17553C14.6778 5.44305 13.4905 5.44275 12.758 6.17488L7.90928 11.0236C5.71254 13.2203 5.71254 16.7819 7.90922 18.9786L7.90928 18.9786L12.758 23.8274C13.4905 24.5595 14.6778 24.5592 15.4099 23.8267C16.1421 23.0942 16.1418 21.907 15.4093 21.1748L11.143 16.9098L28.1268 16.8762C29.1623 16.8741 30.0001 16.0329 29.9981 14.9974C29.996 13.9619 29.1548 13.1241 28.1193 13.1262H28.1268Z" fill="black"/>
</g>
<defs>
<clipPath id="clip0_964_80">
<rect width="30" height="30" fill="white"/>
</clipPath>
</defs>
</svg>
